<svg xmlns="http://www.w3.org/2000/svg" viewBox="0 0 24 24" fill="none" stroke="#064e3b" stroke-width="1" stroke-linecap="round" stroke-linejoin="round">
  <path d="M2 22C2 22 6 18 12 18C18 18 22 22 22 22" />
  <path d="M12 2C7.03 2 3 6.03 3 11C3 14.48 4.97 17.52 7.87 19.04L12 18L16.13 19.04C19.03 17.52 21 14.48 21 11C21 6.03 16.97 2 12 2Z" />
  <path d="M12 2V18" />
  <path d="M12 6C13.5 7.5 15.5 8 15.5 8" />
  <path d="M12 10C13.5 11.5 16 12 16 12" />
  <path d="M12 14C13.5 15.5 15.5 16 15.5 16" />
  <path d="M12 6C10.5 7.5 8.5 8 8.5 8" />
  <path d="M12 10C10.5 11.5 8 12 8 12" />
  <path d="M12 14C10.5 15.5 8.5 16 8.5 16" />
</svg>