<?xml version="1.0" encoding="iso-8859-1"?>
<!-- Uploaded to: SVG Repo, www.svgrepo.com, Generator: SVG Repo Mixer Tools -->
<svg version="1.1" id="Layer_1" xmlns="http://www.w3.org/2000/svg" xmlns:xlink="http://www.w3.org/1999/xlink" 
	 viewBox="0 0 511.999 511.999" xml:space="preserve">
<rect x="212.916" y="393.627" style="fill:#AA8B65;" width="87.576" height="110.781"/>
<polygon style="fill:#33A854;" points="266.928,34.062 251.58,7.593 141.997,196.568 177.841,196.568 115.245,304.512 
	154.782,304.512 94.952,407.69 408.207,407.69 348.377,304.512 387.913,304.512 325.318,196.568 361.162,196.568 329.3,141.621 "/>
<polygon style="opacity:0.33;fill:#278243;enable-background:new    ;" points="347.493,304.512 387.03,304.512 324.435,196.568 
	360.28,196.568 328.417,141.621 266.045,34.062 250.697,7.593 235.902,33.106 279.82,108.841 311.682,163.787 275.838,163.787 
	338.433,271.732 298.896,271.732 358.727,374.909 113.078,374.909 94.068,407.69 407.325,407.69 "/>
<path style="fill:#DFDFE2;" d="M267.449,34.961v-1.206c0-8.88,11.094-12.912,16.795-6.103l39.318,46.956
	c4.023,4.804,6.228,10.871,6.228,17.138v49.59h-24.367c-5.744,0-10.399,4.656-10.399,10.399v9.339
	c0,7.615-6.173,13.787-13.787,13.787l0,0c-7.615,0-13.787-6.173-13.787-13.787V34.961z"/>
<path style="fill:#C6C3CB;" d="M323.563,74.608l-2.611-3.118v27.704c0,9.854-7.988,17.843-17.843,17.843h-6.525
	c-5.744,0-10.399,4.656-10.399,10.399v9.34c0,7.615-6.173,13.787-13.787,13.787l0,0c-1.746,0-3.411-0.338-4.949-0.93v11.053
	c0,7.424,5.705,13.812,13.121,14.161c7.917,0.373,14.454-5.936,14.454-13.771v-9.339c0-5.744,4.656-10.399,10.399-10.399h24.368
	V91.749C329.791,85.479,327.587,79.413,323.563,74.608z"/>
<g>
	<path style="fill:#DFDFE2;" d="M7.951,428.535v75.155h162.08v-8.495c0-16.061-13.02-29.081-29.081-29.081h-17.647
		c-5.642,0-10.217-4.574-10.217-10.217l0,0c0-11.486-9.311-20.797-20.797-20.797H68.653c-7.359,0-13.327-5.966-13.327-13.327l0,0
		c0-13.083-10.605-23.688-23.688-23.688l0,0c-13.083,0-23.688,10.605-23.688,23.688v6.762H7.951z"/>
	<path style="fill:#DFDFE2;" d="M504.047,428.535v75.155h-162.08v-8.495c0-16.061,13.02-29.081,29.081-29.081h17.647
		c5.642,0,10.217-4.574,10.217-10.217l0,0c0-11.486,9.311-20.797,20.797-20.797h23.635c7.359,0,13.327-5.966,13.327-13.327l0,0
		c0-13.083,10.605-23.688,23.688-23.688l0,0c13.083,0,23.688,10.605,23.688,23.688V428.535z"/>
</g>
<g>
	<path style="opacity:0.2;fill:#77757E;enable-background:new    ;" d="M484.599,398.47c0.249,1.377,0.386,2.792,0.386,4.24v6.763
		v42.079c0,18.267-14.809,33.076-33.076,33.076H343.955c-1.279,3.276-1.987,6.837-1.987,10.566v8.495h162.08v-75.155v-6.763
		C504.047,410.138,495.657,400.469,484.599,398.47z"/>
	<path style="opacity:0.2;fill:#77757E;enable-background:new    ;" d="M28.172,398.47c-0.249,1.377-0.386,2.792-0.386,4.24v6.763
		v42.079c0,18.267,14.809,33.076,33.076,33.076h107.955c1.279,3.276,1.987,6.837,1.987,10.566v8.495H8.725v-75.155v-6.763
		C8.725,410.138,17.114,400.469,28.172,398.47z"/>
</g>
<rect x="212.916" y="407.69" style="opacity:0.4;fill:#836948;enable-background:new    ;" width="87.576" height="26.679"/>
<path d="M414.787,411.48c1.356-2.353,1.351-5.251-0.011-7.599l-53.219-91.775h26.356c2.715,0,5.224-1.45,6.58-3.803
	c1.356-2.353,1.351-5.251-0.011-7.599l-55.984-96.542h22.665c2.715,0,5.224-1.45,6.58-3.803c1.356-2.353,1.351-5.251-0.011-7.599
	l-30.348-52.334V91.745c0-8.035-2.841-15.853-7.998-22.013l-39.319-46.956c-4.671-5.58-12.112-7.577-18.95-5.094
	c-1.367,0.496-2.631,1.152-3.789,1.931l-9.179-15.83C256.79,1.442,254.288,0,251.58,0s-5.211,1.442-6.57,3.785L135.427,192.759
	c-1.362,2.349-1.367,5.246-0.011,7.599c1.356,2.353,3.864,3.803,6.58,3.803h22.665l-55.984,96.542
	c-1.362,2.349-1.367,5.246-0.011,7.599c1.356,2.353,3.864,3.803,6.58,3.803h26.356L88.382,403.88
	c-1.362,2.349-1.367,5.246-0.011,7.599c1.356,2.353,3.864,3.803,6.58,3.803H205.32v89.123c0,4.194,3.399,7.593,7.593,7.593h87.58
	c4.195,0,7.593-3.4,7.593-7.593v-89.122h100.12C410.923,415.283,413.432,413.834,414.787,411.48z M275.043,33.755
	c0-0.889,0.424-1.494,1.259-1.798c0.257-0.093,0.502-0.14,0.735-0.14c0.526,0,0.991,0.237,1.386,0.71l39.319,46.956
	c2.873,3.431,4.455,7.786,4.455,12.263v41.997h-16.775c-9.921,0-17.992,8.071-17.992,17.992v9.34c0,3.416-2.778,6.194-6.193,6.194
	c-3.416,0-6.194-2.778-6.194-6.194V33.755z M292.901,496.813h-72.394v-81.53h72.394V496.813z M300.494,400.097h-87.58h-40.096
	l53.853-92.868c1.362-2.349,1.367-5.246,0.011-7.599c-1.356-2.353-3.864-3.803-6.58-3.803h-26.356l55.984-96.542
	c1.363-2.349,1.367-5.246,0.011-7.599c-1.356-2.353-3.865-3.803-6.58-3.803h-22.663l21.452-36.994
	c2.104-3.628,0.868-8.274-2.76-10.378c-3.628-2.105-8.274-0.868-10.379,2.76l-28.065,48.396c-1.362,2.349-1.367,5.246-0.011,7.599
	c1.356,2.353,3.864,3.803,6.58,3.803h22.665l-55.984,96.542c-1.362,2.349-1.367,5.246-0.011,7.599
	c1.356,2.353,3.865,3.803,6.58,3.803h26.356l-51.659,89.084h-47.13l53.219-91.775c1.362-2.349,1.367-5.246,0.011-7.599
	c-1.356-2.353-3.864-3.803-6.58-3.803h-26.356l55.984-96.542c1.363-2.349,1.367-5.246,0.011-7.599
	c-1.356-2.353-3.865-3.803-6.58-3.803h-22.665l96.403-166.244l8.277,14.273v124.071c0,11.79,9.592,21.381,21.381,21.381
	c11.789,0,21.38-9.591,21.38-21.381v-9.34c0-1.547,1.258-2.805,2.805-2.805h19.338l23.222,40.045h-22.665
	c-2.715,0-5.224,1.45-6.58,3.803c-1.356,2.353-1.352,5.251,0.011,7.599l55.984,96.542h-26.356c-2.715,0-5.224,1.45-6.58,3.803
	c-1.356,2.353-1.351,5.251,0.011,7.599l53.219,91.775L300.494,400.097L300.494,400.097z"/>
<path d="M243.104,487.686c4.195,0,7.593-3.4,7.593-7.593v-21.744c0-4.194-3.399-7.593-7.593-7.593s-7.593,3.4-7.593,7.593v21.744
	C235.51,484.286,238.909,487.686,243.104,487.686z"/>
<path d="M270.685,462.17c4.195,0,7.593-3.4,7.593-7.593v-26.042c0-4.194-3.399-7.593-7.593-7.593s-7.593,3.4-7.593,7.593v26.042
	C263.092,458.77,266.491,462.17,270.685,462.17z"/>
<path d="M270.685,487.686c4.195,0,7.593-3.4,7.593-7.593v-7.988c0-4.194-3.399-7.593-7.593-7.593s-7.593,3.4-7.593,7.593v7.988
	C263.092,484.286,266.491,487.686,270.685,487.686z"/>
<path d="M243.104,445.085c4.195,0,7.593-3.4,7.593-7.593v-8.957c0-4.194-3.399-7.593-7.593-7.593s-7.593,3.4-7.593,7.593v8.957
	C235.51,441.685,238.909,445.085,243.104,445.085z"/>
<path d="M140.948,458.519h-17.647c-1.447,0-2.624-1.177-2.624-2.623c0-15.654-12.736-28.391-28.39-28.391H68.653
	c-3.162,0-5.733-2.572-5.733-5.733c0-17.249-14.032-31.281-31.28-31.281s-31.28,14.032-31.28,31.281v81.919
	c0,4.194,3.399,7.593,7.593,7.593h162.079c4.195,0,7.593-3.4,7.593-7.593v-8.496C177.623,474.971,161.171,458.519,140.948,458.519z
	 M162.436,496.097H15.544v-74.324c0-8.875,7.22-16.095,16.094-16.095s16.094,7.22,16.094,16.095c0,11.536,9.385,20.92,20.92,20.92
	h23.635c7.279,0,13.203,5.924,13.203,13.204c0,9.821,7.99,17.81,17.811,17.81h17.647c11.849,0,21.488,9.639,21.488,21.488
	L162.436,496.097L162.436,496.097z"/>
<path d="M480.359,390.491c-17.248,0-31.28,14.032-31.28,31.281c0,3.162-2.572,5.733-5.732,5.733H419.71
	c-15.654,0-28.39,12.737-28.39,28.391c0,1.447-1.177,2.623-2.624,2.623h-17.647c-20.223,0-36.675,16.452-36.675,36.675v8.496
	c0,4.194,3.399,7.593,7.593,7.593h162.08c4.195,0,7.593-3.4,7.593-7.593v-81.918C511.641,404.523,497.608,390.491,480.359,390.491z
	 M496.454,496.097H349.561v-0.903c0-11.849,9.639-21.488,21.488-21.488h17.647c9.821,0,17.811-7.99,17.811-17.81
	c0-7.28,5.924-13.204,13.203-13.204h23.636c11.536,0,20.919-9.384,20.919-20.92c0-8.875,7.22-16.095,16.094-16.095
	c8.874,0,16.095,7.22,16.095,16.095L496.454,496.097L496.454,496.097z"/>
</svg>